<svg xmlns="http://www.w3.org/2000/svg" viewBox="0 0 800 1000" role="img" aria-label="Dieter">
  <style>@font-face{font-family:Sora;src:url('../fonts/Sora-Variable.ttf') format('truetype');font-weight:100 800}</style>
  <svg x="75" y="40" width="650" height="650" viewBox="0 0 1024 1024">
    <defs><linearGradient id="shell" x1="190" y1="160" x2="862" y2="912" gradientUnits="userSpaceOnUse"><stop stop-color="#8DD8E8"/><stop offset=".38" stop-color="#3D6E85"/><stop offset="1" stop-color="#325A6D"/></linearGradient><linearGradient id="pane" x1="250" y1="220" x2="730" y2="850" gradientUnits="userSpaceOnUse"><stop stop-color="#D7F2F5"/><stop offset=".46" stop-color="#8DD8E8"/><stop offset="1" stop-color="#62B6CB"/></linearGradient></defs>
    <path d="M742 104h120v582c0 128-104 232-232 232H394c-128 0-232-104-232-232V493c0-193 157-350 350-350 87 0 167 32 230 83V104Z" fill="url(#shell)"/><path d="M512 342c-138 0-224 83-224 192 0 69 38 116 106 154v98c0 56 45 101 101 101h34c56 0 101-45 101-101v-98c68-38 106-85 106-154 0-109-86-192-224-192Z" fill="#0D1B24"/><g fill="url(#pane)"><rect x="412" y="224" width="200" height="142" rx="36"/><path d="M218 668c0-32 28-54 59-46l93 25c28 8 48 33 48 63v107c0 30-28 53-57 47l-86-17c-33-7-57-36-57-69V668Z"/><path d="M806 668c0-32-28-54-59-46l-93 25c-28 8-48 33-48 63v107c0 30 28 53 57 47l86-17c33-7 57-36 57-69V668Z"/></g><g fill="none" stroke="#0D1B24" stroke-width="25" stroke-linecap="round" stroke-linejoin="round"><path d="m466 273 38 28-38 28M530 329h38"/><path d="m269 704 34 27-34 27M326 758h32"/><path d="m698 704 34 27-34 27M755 758h32"/></g><g fill="#BCEAF1"><rect x="376" y="520" width="88" height="28" rx="14"/><rect x="560" y="520" width="88" height="28" rx="14"/></g>
  </svg>
  <text x="400" y="890" text-anchor="middle" fill="#0D1B24" font-family="Sora, Avenir Next, sans-serif" font-size="190" font-weight="700" letter-spacing="-8">Dieter</text>
</svg>
